<svg xmlns="http://www.w3.org/2000/svg" width="44.055" height="44.055" viewBox="0 0 44.055 44.055">
  <defs>
    <style>
      .cls-1 {
        fill: none;
      }

      .cls-2 {
        fill: #009688;
      }
    </style>
  </defs>
  <g id="Search" transform="translate(0.423 0.423)">
    <rect id="Rectangle_693" data-name="Rectangle 693" class="cls-1" width="44" height="44" transform="translate(-0.423 -0.423)"/>
    <path id="Path_208" data-name="Path 208" class="cls-2" d="M43.632,39.79l-9.056-9.056a18.789,18.789,0,0,0,3.842-11.525A19.091,19.091,0,0,0,19.209,0,19.091,19.091,0,0,0,0,19.209,19.091,19.091,0,0,0,19.209,38.418a18.789,18.789,0,0,0,11.525-3.842l9.056,9.056ZM5.488,19.209A13.588,13.588,0,0,1,19.209,5.488,13.588,13.588,0,0,1,32.93,19.209,13.588,13.588,0,0,1,19.209,32.93,13.588,13.588,0,0,1,5.488,19.209Z"/>
  </g>
</svg>
